<svg version="1.1" id="Layer_1" xmlns="http://www.w3.org/2000/svg" xmlns:xlink="http://www.w3.org/1999/xlink" x="0px" y="0px"
	 width="100%" viewBox="0 0 800 800" enable-background="new 0 0 800 800" xml:space="preserve">
<path fill="#FFFFFF" opacity="1.000000" stroke="none" 
	d="
M406.000000,801.000000 
	C270.666656,801.000000 135.833328,801.000000 1.000000,801.000000 
	C1.000000,534.333313 1.000000,267.666656 1.000000,1.000000 
	C267.666656,1.000000 534.333313,1.000000 801.000000,1.000000 
	C801.000000,267.666656 801.000000,534.333313 801.000000,801.000000 
	C669.500000,801.000000 538.000000,801.000000 406.000000,801.000000 
M456.217010,335.776520 
	C445.033478,343.877960 433.849976,351.979401 422.846558,359.950348 
	C422.818665,359.321686 422.699646,357.869659 422.698273,356.417511 
	C422.684448,341.752472 422.653717,327.087311 422.698883,312.422424 
	C422.756927,293.592499 422.601379,274.755524 423.090088,255.935928 
	C423.344604,246.134033 423.779938,235.915070 435.138855,231.156082 
	C435.935730,230.822235 435.913361,228.533020 436.301636,227.038635 
	C417.430786,227.038635 399.346252,227.038635 379.675049,227.038635 
	C381.370697,229.282410 382.319244,230.635910 383.368225,231.906525 
	C386.139374,235.263153 390.061218,238.175110 391.480225,242.018951 
	C393.393646,247.202087 394.025146,253.082458 394.106049,258.679535 
	C394.464783,283.504730 394.432587,308.335632 394.526031,333.164490 
	C394.529053,333.966919 394.361145,334.769958 394.250031,335.780975 
	C351.051025,335.780975 308.011261,335.780975 265.116516,335.780975 
	C265.116516,307.604767 264.822784,279.787842 265.296570,251.983963 
	C265.437561,243.709885 267.171509,235.226593 276.582458,231.355225 
	C277.562836,230.951904 277.773132,228.676483 278.491974,226.894852 
	C259.420837,226.894852 241.443588,226.894852 222.297668,226.894852 
	C223.216202,228.794449 223.543793,230.991379 224.627502,231.467560 
	C231.885284,234.656708 234.310104,240.888702 235.014282,247.904205 
	C235.861084,256.340698 236.457092,264.840790 236.480240,273.315186 
	C236.613602,322.142731 236.563950,370.970886 236.521973,419.798737 
	C236.516815,425.794556 236.521072,431.823120 235.931290,437.778076 
	C235.028976,446.888733 234.490250,456.343750 224.185837,460.872406 
	C223.280884,461.270142 223.194138,463.529602 222.585617,465.347900 
	C241.470490,465.347900 259.561462,465.347900 279.354462,465.347900 
	C277.602966,462.972900 276.859680,460.921814 275.458099,460.255768 
	C270.837830,458.059875 268.122650,454.479309 267.061646,449.726105 
	C266.086823,445.358948 265.107391,440.875580 265.069672,436.435425 
	C264.809174,405.774902 264.791779,375.112335 264.718384,344.450378 
	C264.716553,343.682648 264.969269,342.914368 265.098145,342.175598 
	C308.333099,342.175598 351.248383,342.175598 394.143005,342.175598 
	C394.306580,342.965088 394.498566,343.444977 394.491669,343.921997 
	C394.004456,377.560364 393.653564,411.202087 392.866791,444.833557 
	C392.715485,451.301605 389.904480,457.030457 383.397430,460.224762 
	C382.028900,460.896576 381.409668,463.094788 379.665497,465.798004 
	C385.861023,465.798004 390.273132,465.798004 394.697388,465.798004 
	C394.916382,467.162048 395.029388,467.975159 395.178864,468.781525 
	C403.091766,511.469727 427.232178,540.164978 468.535553,554.274292 
	C492.677887,562.521240 517.488586,563.613770 542.556152,561.492798 
	C563.891113,559.687561 584.646790,555.181824 604.291199,546.273560 
	C607.253662,544.930054 609.240295,543.544983 609.259766,539.811218 
	C609.279480,536.012329 610.201782,532.222778 610.657776,528.420532 
	C611.801270,518.886780 612.904541,509.348206 614.020996,499.836609 
	C609.786316,498.199799 609.553467,501.317749 608.676636,503.433716 
	C591.884399,543.955139 557.646240,559.642700 516.477722,554.425415 
	C482.912384,550.171753 458.237366,532.275696 441.041931,503.608673 
	C434.082764,492.006836 429.036743,479.585083 426.194672,465.870667 
	C429.683289,465.680969 432.773651,465.512939 437.331177,465.265137 
	C435.838867,463.052826 435.215881,460.972412 433.941620,460.434357 
	C427.370422,457.659668 424.618744,452.096802 424.202911,445.821472 
	C423.378937,433.386047 421.839142,420.687439 423.408630,408.458710 
	C429.628113,359.998749 461.424500,327.521790 508.949768,324.731689 
	C549.306152,322.362396 582.723816,335.194885 602.977539,372.932251 
	C603.604858,374.101196 605.194031,374.753876 606.334717,375.647217 
	C606.852661,374.250183 607.841614,372.843689 607.813904,371.457581 
	C607.597351,360.629364 607.031921,349.806580 606.924133,338.978668 
	C606.890320,335.585693 605.751099,333.654541 602.628052,332.693939 
	C590.431152,328.942261 578.449219,324.139893 566.004883,321.609955 
	C528.202637,313.924774 491.469849,316.865326 456.217010,335.776520 
z"/>
<path fill="#611BEB" opacity="1.000000" stroke="none" 
	d="
M456.530640,335.583130 
	C491.469849,316.865326 528.202637,313.924774 566.004883,321.609955 
	C578.449219,324.139893 590.431152,328.942261 602.628052,332.693939 
	C605.751099,333.654541 606.890320,335.585693 606.924133,338.978668 
	C607.031921,349.806580 607.597351,360.629364 607.813904,371.457581 
	C607.841614,372.843689 606.852661,374.250183 606.334717,375.647217 
	C605.194031,374.753876 603.604858,374.101196 602.977539,372.932251 
	C582.723816,335.194885 549.306152,322.362396 508.949768,324.731689 
	C461.424500,327.521790 429.628113,359.998749 423.408630,408.458710 
	C421.839142,420.687439 423.378937,433.386047 424.202911,445.821472 
	C424.618744,452.096802 427.370422,457.659668 433.941620,460.434357 
	C435.215881,460.972412 435.838867,463.052826 437.331177,465.265137 
	C432.773651,465.512939 429.683289,465.680969 426.194672,465.870667 
	C429.036743,479.585083 434.082764,492.006836 441.041931,503.608673 
	C458.237366,532.275696 482.912384,550.171753 516.477722,554.425415 
	C557.646240,559.642700 591.884399,543.955139 608.676636,503.433716 
	C609.553467,501.317749 609.786316,498.199799 614.020996,499.836609 
	C612.904541,509.348206 611.801270,518.886780 610.657776,528.420532 
	C610.201782,532.222778 609.279480,536.012329 609.259766,539.811218 
	C609.240295,543.544983 607.253662,544.930054 604.291199,546.273560 
	C584.646790,555.181824 563.891113,559.687561 542.556152,561.492798 
	C517.488586,563.613770 492.677887,562.521240 468.535553,554.274292 
	C427.232178,540.164978 403.091766,511.469727 395.178864,468.781525 
	C395.029388,467.975159 394.916382,467.162048 394.697388,465.798004 
	C390.273132,465.798004 385.861023,465.798004 379.665497,465.798004 
	C381.409668,463.094788 382.028900,460.896576 383.397430,460.224762 
	C389.904480,457.030457 392.715485,451.301605 392.866791,444.833557 
	C393.653564,411.202087 394.004456,377.560364 394.491669,343.921997 
	C394.498566,343.444977 394.306580,342.965088 394.143005,342.175598 
	C351.248383,342.175598 308.333099,342.175598 265.098145,342.175598 
	C264.969269,342.914368 264.716553,343.682648 264.718384,344.450378 
	C264.791779,375.112335 264.809174,405.774902 265.069672,436.435425 
	C265.107391,440.875580 266.086823,445.358948 267.061646,449.726105 
	C268.122650,454.479309 270.837830,458.059875 275.458099,460.255768 
	C276.859680,460.921814 277.602966,462.972900 279.354462,465.347900 
	C259.561462,465.347900 241.470490,465.347900 222.585617,465.347900 
	C223.194138,463.529602 223.280884,461.270142 224.185837,460.872406 
	C234.490250,456.343750 235.028976,446.888733 235.931290,437.778076 
	C236.521072,431.823120 236.516815,425.794556 236.521973,419.798737 
	C236.563950,370.970886 236.613602,322.142731 236.480240,273.315186 
	C236.457092,264.840790 235.861084,256.340698 235.014282,247.904205 
	C234.310104,240.888702 231.885284,234.656708 224.627502,231.467560 
	C223.543793,230.991379 223.216202,228.794449 222.297668,226.894852 
	C241.443588,226.894852 259.420837,226.894852 278.491974,226.894852 
	C277.773132,228.676483 277.562836,230.951904 276.582458,231.355225 
	C267.171509,235.226593 265.437561,243.709885 265.296570,251.983963 
	C264.822784,279.787842 265.116516,307.604767 265.116516,335.780975 
	C308.011261,335.780975 351.051025,335.780975 394.250031,335.780975 
	C394.361145,334.769958 394.529053,333.966919 394.526031,333.164490 
	C394.432587,308.335632 394.464783,283.504730 394.106049,258.679535 
	C394.025146,253.082458 393.393646,247.202087 391.480225,242.018951 
	C390.061218,238.175110 386.139374,235.263153 383.368225,231.906525 
	C382.319244,230.635910 381.370697,229.282410 379.675049,227.038635 
	C399.346252,227.038635 417.430786,227.038635 436.301636,227.038635 
	C435.913361,228.533020 435.935730,230.822235 435.138855,231.156082 
	C423.779938,235.915070 423.344604,246.134033 423.090088,255.935928 
	C422.601379,274.755524 422.756927,293.592499 422.698883,312.422424 
	C422.653717,327.087311 422.684448,341.752472 422.698273,356.417511 
	C422.699646,357.869659 422.818665,359.321686 422.846558,359.950348 
	C433.849976,351.979401 445.033478,343.877960 456.530640,335.583130 
z"/>
</svg>